# xmcd CD database file
#
# Track frame offsets:
#	150
#	19319
#	37994
#	59294
#	79019
#	92219
#	114157
#	132607
#	159907
#	183644
#	214732
#	232882
#
# Disc length: 3837 seconds
#
# Revision: 1
# Processed by: cddbd v1.5.1PL2 Copyright (c) Steve Scherf et al.
# Submitted via: CDex 1.51
#
DISCID=980efb0c
DTITLE=Barefoot Iano - High on life
DYEAR=2003
DGENRE=Blues
TTITLE0=Gonna get high
TTITLE1=Can you keep it that way ?
TTITLE2=Two people
TTITLE3=Love her just the same
TTITLE4=Get on your feet
TTITLE5=Time and money
TTITLE6=Leavin' in the morning
TTITLE7=Ask for nothing
TTITLE8=Whatcha gonna be ?
TTITLE9=The morning after
TTITLE10=Walkin with Tim
TTITLE11=The type you are
EXTD=YEAR: 2003
EXTT0=
EXTT1=
EXTT2=
EXTT3=
EXTT4=
EXTT5=
EXTT6=
EXTT7=
EXTT8=
EXTT9=
EXTT10=
EXTT11=
PLAYORDER=
